<svg width="31" height="31" viewBox="0 0 31 31" fill="none" xmlns="http://www.w3.org/2000/svg">
<path d="M30.2 15.8593C30.2 14.8467 30.102 13.8013 29.9387 12.8213H15.794V18.6033H23.8953C23.5687 20.4653 22.4907 22.0987 20.89 23.144L25.7247 26.9007C28.5667 24.2547 30.2 20.4 30.2 15.8593Z" fill="#4280EF"/>
<path d="M15.794 30.494C19.8447 30.494 23.242 29.1547 25.7247 26.868L20.89 23.144C19.5507 24.0587 17.8194 24.5813 15.794 24.5813C11.874 24.5813 8.5747 21.9353 7.36603 18.4073L2.4007 22.2293C4.9487 27.2927 10.11 30.494 15.794 30.494Z" fill="#34A353"/>
<path d="M7.366 18.3747C6.74533 16.5127 6.74533 14.4873 7.366 12.6253L2.40067 8.77068C0.277333 13.0173 0.277333 18.0153 2.40067 22.2293L7.366 18.3747Z" fill="#F6B704"/>
<path d="M15.794 6.45134C17.9174 6.41867 20.008 7.23534 21.5434 8.70534L25.8227 4.39334C23.1114 1.84534 19.518 0.473336 15.794 0.506002C10.11 0.506002 4.9487 3.70734 2.4007 8.77067L7.36603 12.6253C8.57469 9.06467 11.874 6.45134 15.794 6.45134Z" fill="#E54335"/>
</svg>
